<?xml version="1.0" encoding="UTF-8" standalone="no"?>
<!-- Created with Inkscape (http://www.inkscape.org/) -->

<svg
   version="1.1"
   id="svg2"
   width="37.911331"
   height="18.651733"
   viewBox="0 0 37.911331 18.651733"
   xmlns="http://www.w3.org/2000/svg"
   xmlns:svg="http://www.w3.org/2000/svg">
  <defs
     id="defs6">
    <clipPath
       clipPathUnits="userSpaceOnUse"
       id="clipPath36565">
      <path
         d="M -5.997202,-11.590903 H 29.884801 V 12.1231 H -5.997202 Z"
         id="path36567"
         style="stroke-width:0.999998" />
    </clipPath>
    <clipPath
       clipPathUnits="userSpaceOnUse"
       id="clipPath36581">
      <path
         d="M -32.348902,-13.850403 H 3.5331014 V 9.8636004 H -32.348902 Z"
         id="path36583"
         style="stroke-width:0.999998" />
    </clipPath>
    <clipPath
       clipPathUnits="userSpaceOnUse"
       id="clipPath36585">
      <path
         d="M -22.933902,-13.850403 H 12.948101 V 9.8636004 h -35.882003 z"
         id="path36587"
         style="stroke-width:0.999998" />
    </clipPath>
    <clipPath
       clipPathUnits="userSpaceOnUse"
       id="clipPath36589">
      <path
         d="M -34.262502,-12.529803 H 1.6195014 V 11.1842 H -34.262502 Z"
         id="path36591"
         style="stroke-width:0.999998" />
    </clipPath>
    <clipPath
       clipPathUnits="userSpaceOnUse"
       id="clipPath36593">
      <path
         d="M -24.733702,-12.529803 H 11.148301 V 11.1842 h -35.882003 z"
         id="path36595"
         style="stroke-width:0.999998" />
    </clipPath>
    <clipPath
       clipPathUnits="userSpaceOnUse"
       id="clipPath36597">
      <path
         d="M -24.974302,-11.024003 H 10.907701 V 12.69 h -35.882003 z"
         id="path36599"
         style="stroke-width:0.999998" />
    </clipPath>
    <clipPath
       clipPathUnits="userSpaceOnUse"
       id="clipPath36601">
      <path
         d="M -6.050902,-11.185203 H 29.831101 V 12.5288 H -6.050902 Z"
         id="path36603"
         style="stroke-width:0.999998" />
    </clipPath>
    <clipPath
       clipPathUnits="userSpaceOnUse"
       id="clipPath36605">
      <path
         d="M -15.560502,-11.024003 H 20.321501 V 12.69 h -35.882003 z"
         id="path36607"
         style="stroke-width:0.999998" />
    </clipPath>
    <clipPath
       clipPathUnits="userSpaceOnUse"
       id="clipPath36609">
      <path
         d="M -7.945002,-9.8646027 H 27.937001 V 13.8494 H -7.945002 Z"
         id="path36611"
         style="stroke-width:0.999998" />
    </clipPath>
    <clipPath
       clipPathUnits="userSpaceOnUse"
       id="clipPath36613">
      <path
         d="M -17.359202,-9.8646027 H 18.522801 V 13.8494 h -35.882003 z"
         id="path36615"
         style="stroke-width:0.999998" />
    </clipPath>
    <clipPath
       clipPathUnits="userSpaceOnUse"
       id="clipPath36617">
      <path
         d="M -26.774102,-9.8646027 H 9.1079014 V 13.8494 H -26.774102 Z"
         id="path36619"
         style="stroke-width:0.999998" />
    </clipPath>
    <clipPath
       clipPathUnits="userSpaceOnUse"
       id="clipPath36621">
      <path
         d="M -13.519902,-13.850403 H 22.362101 V 9.8636004 h -35.882003 z"
         id="path36623"
         style="stroke-width:0.999998" />
    </clipPath>
    <clipPath
       clipPathUnits="userSpaceOnUse"
       id="clipPath36625">
      <path
         d="M -15.318602,-12.368503 H 20.563401 V 11.3455 h -35.882003 z"
         id="path36627"
         style="stroke-width:0.999998" />
    </clipPath>
  </defs>
  <g
     id="g12192"
     transform="matrix(1.3333333,0,0,-1.3333333,12.428532,8.6443835)"
     clip-path="url(#clipPath36625)">
    <path
       d="M 0,0 V 0.415 C -0.069,0.568 -0.137,0.719 -0.208,0.869 -0.396,1.281 -0.59,1.691 -0.789,2.098 -0.977,2.484 -1.173,2.867 -1.378,3.244 -1.568,3.593 -1.764,3.938 -1.976,4.274 -2.165,4.576 -2.365,4.871 -2.584,5.151 -2.682,5.278 -2.786,5.402 -2.894,5.522 -2.995,5.633 -3.099,5.74 -3.21,5.84 -3.41,6.023 -3.627,6.188 -3.87,6.306 -3.982,6.361 -4.1,6.405 -4.222,6.437 -4.341,6.466 -4.464,6.482 -4.586,6.482 -4.71,6.482 -4.832,6.466 -4.95,6.437 -5.071,6.405 -5.19,6.361 -5.302,6.306 -5.546,6.188 -5.763,6.023 -5.962,5.84 -6.191,5.631 -6.398,5.396 -6.589,5.151 -6.808,4.871 -7.007,4.576 -7.197,4.274 -7.408,3.937 -7.605,3.593 -7.795,3.244 -8,2.867 -8.194,2.483 -8.384,2.097 -8.69,1.473 -8.982,0.84 -9.268,0.205 V 0 h 0.498 c 0.281,0.624 0.568,1.246 0.87,1.862 0.186,0.378 0.378,0.756 0.578,1.126 0.185,0.339 0.377,0.673 0.58,1 0.181,0.286 0.371,0.566 0.578,0.832 0.092,0.117 0.186,0.231 0.285,0.341 0.089,0.097 0.182,0.194 0.28,0.282 0.086,0.08 0.175,0.155 0.272,0.223 0.084,0.059 0.169,0.112 0.261,0.156 0.079,0.039 0.161,0.071 0.246,0.093 0.076,0.019 0.155,0.029 0.234,0.029 0.079,0 0.158,-0.01 0.234,-0.029 0.085,-0.022 0.167,-0.054 0.246,-0.093 0.092,-0.044 0.178,-0.097 0.26,-0.156 0.097,-0.068 0.188,-0.142 0.273,-0.223 0.098,-0.088 0.191,-0.185 0.279,-0.282 0.1,-0.11 0.194,-0.224 0.285,-0.341 0.208,-0.266 0.397,-0.546 0.576,-0.832 0.206,-0.326 0.397,-0.661 0.581,-1 0.202,-0.37 0.394,-0.746 0.578,-1.126 0.199,-0.403 0.389,-0.809 0.577,-1.216 0.1,-0.215 0.198,-0.43 0.294,-0.646 z"
       style="fill:#202020;fill-opacity:1;fill-rule:nonzero;stroke:none"
       id="path12194" />
  </g>
  <g
     id="g12196"
     transform="matrix(1.3333333,0,0,-1.3333333,10.030266,6.6685169)"
     clip-path="url(#clipPath36621)">
    <path
       d="M 0,0 C -0.213,0.222 -0.431,0.439 -0.662,0.641 -0.793,0.754 -0.928,0.866 -1.068,0.967 -1.201,1.066 -1.338,1.158 -1.481,1.242 -1.617,1.322 -1.76,1.394 -1.904,1.453 -2.046,1.511 -2.192,1.558 -2.34,1.59 -2.488,1.622 -2.637,1.638 -2.788,1.638 -2.937,1.638 -3.087,1.622 -3.234,1.59 -3.383,1.558 -3.529,1.511 -3.67,1.453 -3.817,1.394 -3.958,1.322 -4.094,1.242 -4.237,1.158 -4.374,1.066 -4.507,0.967 -4.647,0.866 -4.782,0.754 -4.912,0.641 -5.144,0.439 -5.363,0.222 -5.575,0 -5.844,-0.286 -6.103,-0.581 -6.352,-0.883 -6.517,-1.081 -6.68,-1.281 -6.84,-1.483 h 0.692 c 0.069,0.086 0.138,0.171 0.209,0.256 0.244,0.293 0.494,0.579 0.755,0.856 0.199,0.211 0.407,0.415 0.625,0.606 0.12,0.104 0.244,0.205 0.371,0.3 0.118,0.085 0.239,0.169 0.366,0.242 0.115,0.068 0.233,0.128 0.355,0.177 0.112,0.046 0.226,0.084 0.345,0.11 0.109,0.023 0.223,0.037 0.334,0.037 0.113,0 0.226,-0.014 0.334,-0.037 0.12,-0.026 0.235,-0.064 0.345,-0.11 0.123,-0.049 0.242,-0.109 0.357,-0.177 0.125,-0.073 0.247,-0.157 0.364,-0.242 0.129,-0.095 0.252,-0.196 0.371,-0.3 0.219,-0.191 0.427,-0.395 0.626,-0.606 0.262,-0.277 0.51,-0.563 0.755,-0.856 0.07,-0.085 0.141,-0.17 0.21,-0.256 H 1.266 C 1.105,-1.281 0.943,-1.081 0.777,-0.883 0.527,-0.581 0.27,-0.286 0,0"
       style="fill:#b3b3b3;fill-opacity:1;fill-rule:nonzero;stroke:none"
       id="path12198" />
  </g>
  <g
     id="g12204"
     transform="matrix(1.3333333,0,0,-1.3333333,15.149332,11.982917)"
     clip-path="url(#clipPath36613)">
    <path
       d="m 0,0 c 0.213,-0.224 0.431,-0.439 0.663,-0.641 0.13,-0.114 0.266,-0.225 0.405,-0.328 0.133,-0.098 0.27,-0.191 0.413,-0.274 0.136,-0.08 0.279,-0.151 0.424,-0.211 0.141,-0.058 0.288,-0.104 0.435,-0.136 0.148,-0.032 0.297,-0.05 0.448,-0.05 0.149,0 0.3,0.018 0.446,0.05 0.148,0.032 0.295,0.078 0.436,0.136 0.146,0.06 0.288,0.131 0.424,0.211 0.142,0.083 0.28,0.176 0.413,0.274 0.14,0.103 0.275,0.214 0.406,0.328 0.231,0.202 0.45,0.417 0.662,0.641 0.27,0.285 0.528,0.581 0.777,0.882 0.061,0.071 0.121,0.144 0.181,0.217 0.057,0.127 0.114,0.255 0.172,0.383 H 6.149 C 6.078,1.397 6.01,1.312 5.938,1.226 5.696,0.933 5.445,0.646 5.184,0.37 4.984,0.159 4.777,-0.045 4.559,-0.236 4.439,-0.339 4.315,-0.442 4.188,-0.535 4.07,-0.622 3.95,-0.704 3.823,-0.777 3.708,-0.845 3.59,-0.906 3.468,-0.955 3.355,-1.001 3.24,-1.04 3.123,-1.064 3.012,-1.087 2.9,-1.101 2.788,-1.101 2.675,-1.101 2.563,-1.087 2.452,-1.064 2.335,-1.04 2.221,-1.001 2.109,-0.955 1.987,-0.906 1.867,-0.845 1.752,-0.777 1.627,-0.704 1.505,-0.622 1.388,-0.535 1.26,-0.442 1.136,-0.339 1.017,-0.236 0.798,-0.045 0.591,0.159 0.391,0.37 0.129,0.646 -0.119,0.933 -0.364,1.226 l -0.21,0.256 H -1.13 C -1.073,1.354 -1.015,1.227 -0.958,1.1 -0.896,1.027 -0.839,0.953 -0.777,0.882 -0.527,0.581 -0.269,0.285 0,0"
       style="fill:#b3b3b3;fill-opacity:1;fill-rule:nonzero;stroke:none"
       id="path12206" />
  </g>
  <g
     id="g12212"
     transform="matrix(1.3333333,0,0,-1.3333333,12.751065,10.43705)"
     clip-path="url(#clipPath36605)">
    <path
       d="m 0,0 v -0.095 c 0.255,-0.563 0.516,-1.124 0.789,-1.681 0.188,-0.384 0.384,-0.769 0.589,-1.147 0.189,-0.348 0.387,-0.693 0.599,-1.03 0.188,-0.301 0.389,-0.596 0.608,-0.876 0.191,-0.246 0.396,-0.48 0.625,-0.69 0.2,-0.182 0.418,-0.348 0.66,-0.466 0.112,-0.053 0.23,-0.099 0.353,-0.13 0.118,-0.03 0.241,-0.046 0.363,-0.046 0.122,0 0.246,0.016 0.365,0.046 0.12,0.031 0.24,0.077 0.351,0.13 0.244,0.118 0.461,0.284 0.661,0.466 0.11,0.101 0.216,0.208 0.315,0.319 0.108,0.119 0.212,0.243 0.312,0.371 0.218,0.28 0.417,0.575 0.607,0.876 0.21,0.335 0.408,0.68 0.597,1.027 0.204,0.377 0.399,0.759 0.588,1.145 0.198,0.405 0.39,0.813 0.58,1.223 0.071,0.154 0.141,0.308 0.211,0.463 L 9.173,0 H 8.625 C 8.574,-0.109 8.526,-0.216 8.477,-0.325 8.288,-0.732 8.098,-1.137 7.899,-1.541 7.713,-1.919 7.522,-2.295 7.321,-2.668 7.137,-3.006 6.945,-3.341 6.742,-3.666 6.561,-3.953 6.371,-4.232 6.163,-4.498 6.072,-4.615 5.978,-4.73 5.879,-4.84 5.792,-4.937 5.698,-5.032 5.599,-5.122 5.513,-5.2 5.422,-5.277 5.328,-5.344 5.243,-5.402 5.158,-5.456 5.066,-5.501 4.987,-5.54 4.905,-5.571 4.819,-5.593 4.743,-5.612 4.665,-5.623 4.586,-5.623 c -0.078,0 -0.158,0.011 -0.234,0.03 C 4.267,-5.571 4.186,-5.54 4.106,-5.501 4.015,-5.456 3.928,-5.402 3.846,-5.344 3.75,-5.277 3.658,-5.2 3.573,-5.122 3.476,-5.032 3.382,-4.937 3.295,-4.84 3.194,-4.73 3.099,-4.615 3.009,-4.498 2.801,-4.232 2.611,-3.953 2.433,-3.666 2.227,-3.341 2.036,-3.006 1.852,-2.668 1.65,-2.295 1.459,-1.918 1.272,-1.541 1.023,-1.03 0.782,-0.518 0.548,0 Z"
       style="fill:#202020;fill-opacity:1;fill-rule:nonzero;stroke:none"
       id="path12214" />
  </g>
  <g
     id="g12228"
     transform="matrix(1.3333333,0,0,-1.3333333,37.687065,8.4293168)"
     clip-path="url(#clipPath36589)">
    <path
       d="M 0,0 C -0.107,0.236 -0.214,0.473 -0.322,0.708 -0.511,1.12 -0.704,1.53 -0.903,1.937 -1.092,2.322 -1.287,2.706 -1.493,3.083 -1.682,3.431 -1.88,3.777 -2.092,4.113 -2.28,4.415 -2.48,4.71 -2.7,4.99 c -0.097,0.128 -0.202,0.251 -0.309,0.37 -0.099,0.111 -0.206,0.219 -0.316,0.319 -0.2,0.183 -0.418,0.348 -0.66,0.466 -0.112,0.055 -0.23,0.1 -0.352,0.13 -0.119,0.03 -0.241,0.047 -0.364,0.047 -0.123,0 -0.246,-0.017 -0.364,-0.047 C -5.187,6.245 -5.305,6.2 -5.417,6.145 -5.661,6.027 -5.878,5.862 -6.078,5.679 -6.307,5.47 -6.513,5.235 -6.703,4.99 -6.923,4.71 -7.122,4.415 -7.312,4.113 -7.522,3.777 -7.72,3.431 -7.91,3.083 -8.115,2.706 -8.309,2.322 -8.498,1.937 -8.771,1.38 -9.033,0.819 -9.288,0.255 v -0.416 h 0.402 c 0.004,0.005 0.006,0.011 0.008,0.017 0.053,0.117 0.106,0.233 0.16,0.35 l 0.16,0.35 c 0.054,0.116 0.108,0.233 0.161,0.349 0.056,0.115 0.11,0.232 0.164,0.348 0.106,0.22 0.213,0.437 0.32,0.655 0.109,0.216 0.219,0.433 0.333,0.649 0.05,0.097 0.103,0.193 0.156,0.292 0.052,0.097 0.106,0.193 0.16,0.29 0.054,0.095 0.109,0.193 0.165,0.287 0.055,0.097 0.113,0.192 0.17,0.284 0.03,0.048 0.058,0.094 0.089,0.142 0.029,0.045 0.059,0.092 0.089,0.138 0.059,0.095 0.122,0.185 0.184,0.276 0.103,0.151 0.212,0.296 0.324,0.438 0.051,0.064 0.103,0.128 0.156,0.189 0.054,0.063 0.107,0.123 0.163,0.183 0.064,0.068 0.131,0.134 0.199,0.198 0.07,0.063 0.14,0.124 0.215,0.181 0.047,0.036 0.096,0.07 0.144,0.101 0.049,0.033 0.101,0.062 0.153,0.089 0.089,0.046 0.181,0.083 0.279,0.109 0.085,0.021 0.174,0.032 0.261,0.029 0.091,-0.002 0.179,-0.019 0.265,-0.047 0.1,-0.029 0.194,-0.075 0.283,-0.126 0.106,-0.06 0.205,-0.131 0.3,-0.208 0.059,-0.048 0.116,-0.099 0.17,-0.15 C -3.542,5.148 -3.437,5.034 -3.338,4.919 -3.225,4.79 -3.118,4.655 -3.016,4.518 -2.903,4.366 -2.795,4.21 -2.692,4.053 -2.511,3.781 -2.346,3.501 -2.184,3.22 -1.956,2.816 -1.739,2.406 -1.532,1.993 -1.308,1.545 -1.093,1.094 -0.884,0.64 -0.784,0.427 -0.688,0.214 -0.59,0 Z"
       style="fill:#202020;fill-opacity:1;fill-rule:nonzero;stroke:none"
       id="path12230" />
  </g>
  <g
     id="g12236"
     transform="matrix(1.3333333,0,0,-1.3333333,35.135598,6.6685169)"
     clip-path="url(#clipPath36581)">
    <path
       d="M 0,0 C -0.212,0.222 -0.432,0.439 -0.662,0.641 -0.793,0.754 -0.929,0.866 -1.068,0.967 -1.201,1.066 -1.338,1.158 -1.481,1.242 -1.619,1.322 -1.76,1.394 -1.905,1.453 -2.046,1.511 -2.193,1.558 -2.34,1.59 -2.487,1.622 -2.637,1.638 -2.788,1.638 -2.937,1.638 -3.088,1.622 -3.234,1.59 -3.382,1.558 -3.529,1.511 -3.67,1.453 -3.816,1.394 -3.958,1.322 -4.094,1.242 -4.237,1.158 -4.374,1.066 -4.507,0.967 -4.647,0.866 -4.782,0.754 -4.913,0.641 -5.144,0.439 -5.363,0.222 -5.575,0 -5.844,-0.286 -6.103,-0.581 -6.353,-0.883 -6.518,-1.081 -6.679,-1.281 -6.84,-1.483 h 0.691 c 0.043,0.054 0.089,0.109 0.132,0.162 0.026,0.032 0.054,0.063 0.078,0.094 0.243,0.293 0.494,0.579 0.755,0.856 0.2,0.211 0.407,0.415 0.624,0.606 0.121,0.104 0.245,0.205 0.372,0.3 0.118,0.085 0.238,0.169 0.365,0.242 0.115,0.068 0.233,0.128 0.355,0.177 0.113,0.046 0.228,0.084 0.345,0.11 0.11,0.023 0.223,0.037 0.335,0.037 0.113,0 0.225,-0.014 0.334,-0.037 0.119,-0.026 0.233,-0.064 0.345,-0.11 0.122,-0.049 0.242,-0.109 0.357,-0.177 0.125,-0.073 0.247,-0.157 0.364,-0.242 0.128,-0.095 0.252,-0.196 0.371,-0.3 0.219,-0.191 0.426,-0.395 0.626,-0.606 0.262,-0.277 0.51,-0.563 0.755,-0.856 0.025,-0.031 0.051,-0.062 0.077,-0.094 H 1.136 C 1.017,-1.173 0.898,-1.027 0.777,-0.883 0.526,-0.581 0.269,-0.286 0,0"
       style="fill:#b3b3b3;fill-opacity:1;fill-rule:nonzero;stroke:none"
       id="path12238" />
  </g>
</svg>
