<?xml version="1.0" encoding="UTF-8" standalone="no"?>
<!-- Created with Inkscape (http://www.inkscape.org/) -->

<svg
   version="1.1"
   id="svg2"
   width="46.864395"
   height="30.70694"
   viewBox="0 0 46.864395 30.70694"
   xmlns="http://www.w3.org/2000/svg"
   xmlns:svg="http://www.w3.org/2000/svg">
  <defs
     id="defs6">
    <clipPath
       clipPathUnits="userSpaceOnUse"
       id="clipPath36436">
      <path
         d="M -9.5295006,-0.92300019 H 25.620503 V 22.306998 H -9.5295006 Z"
         id="path36438"
         style="stroke-width:0.999998" />
    </clipPath>
    <clipPath
       clipPathUnits="userSpaceOnUse"
       id="clipPath36440">
      <path
         d="M -6.9262006,-2.7358002 H 28.223803 V 20.494198 H -6.9262006 Z"
         id="path36442"
         style="stroke-width:0.999998" />
    </clipPath>
    <clipPath
       clipPathUnits="userSpaceOnUse"
       id="clipPath36444">
      <path
         d="M -5.8741006,-11.3539 H 29.275903 V 11.876098 H -5.8741006 Z"
         id="path36446"
         style="stroke-width:0.999998" />
    </clipPath>
    <clipPath
       clipPathUnits="userSpaceOnUse"
       id="clipPath36448">
      <path
         d="M -2.8196006,-11.3514 H 32.330403 V 11.878598 H -2.8196006 Z"
         id="path36450"
         style="stroke-width:0.999998" />
    </clipPath>
    <clipPath
       clipPathUnits="userSpaceOnUse"
       id="clipPath36452">
      <path
         d="M -35.046301,-13.8075 H 0.10370276 V 9.4224979 H -35.046301 Z"
         id="path36454"
         style="stroke-width:0.999998" />
    </clipPath>
    <clipPath
       clipPathUnits="userSpaceOnUse"
       id="clipPath36456">
      <path
         d="M -5.1579006,-7.0442002 H 29.992103 V 16.185798 H -5.1579006 Z"
         id="path36458"
         style="stroke-width:0.999998" />
    </clipPath>
    <clipPath
       clipPathUnits="userSpaceOnUse"
       id="clipPath36460">
      <path
         d="M -31.687601,-13.5673 H 3.4624028 V 9.6626979 H -31.687601 Z"
         id="path36462"
         style="stroke-width:0.999998" />
    </clipPath>
    <clipPath
       clipPathUnits="userSpaceOnUse"
       id="clipPath36464">
      <path
         d="M -22.465001,-13.5673 H 12.685003 V 9.6626979 h -35.150004 z"
         id="path36466"
         style="stroke-width:0.999998" />
    </clipPath>
    <clipPath
       clipPathUnits="userSpaceOnUse"
       id="clipPath36468">
      <path
         d="M -33.562101,-12.2735 H 1.5879028 V 10.956498 H -33.562101 Z"
         id="path36470"
         style="stroke-width:0.999998" />
    </clipPath>
    <clipPath
       clipPathUnits="userSpaceOnUse"
       id="clipPath36472">
      <path
         d="M -24.227801,-12.2735 H 10.922203 V 10.956498 H -24.227801 Z"
         id="path36474"
         style="stroke-width:0.999998" />
    </clipPath>
    <clipPath
       clipPathUnits="userSpaceOnUse"
       id="clipPath36476">
      <path
         d="M -24.463901,-10.7983 H 10.686103 V 12.431698 H -24.463901 Z"
         id="path36478"
         style="stroke-width:0.999998" />
    </clipPath>
    <clipPath
       clipPathUnits="userSpaceOnUse"
       id="clipPath36480">
      <path
         d="M -5.9268006,-10.9566 H 29.223203 V 12.273398 H -5.9268006 Z"
         id="path36482"
         style="stroke-width:0.999998" />
    </clipPath>
    <clipPath
       clipPathUnits="userSpaceOnUse"
       id="clipPath36484">
      <path
         d="M -15.242001,-10.7983 H 19.908003 V 12.431698 H -15.242001 Z"
         id="path36486"
         style="stroke-width:0.999998" />
    </clipPath>
    <clipPath
       clipPathUnits="userSpaceOnUse"
       id="clipPath36488">
      <path
         d="M -7.7822006,-9.6629002 H 27.367803 V 13.567098 H -7.7822006 Z"
         id="path36490"
         style="stroke-width:0.999998" />
    </clipPath>
    <clipPath
       clipPathUnits="userSpaceOnUse"
       id="clipPath36492">
      <path
         d="M -17.003901,-9.6629002 H 18.146103 V 13.567098 h -35.150004 z"
         id="path36494"
         style="stroke-width:0.999998" />
    </clipPath>
    <clipPath
       clipPathUnits="userSpaceOnUse"
       id="clipPath36496">
      <path
         d="M -26.226701,-9.6629002 H 8.9233028 V 13.567098 H -26.226701 Z"
         id="path36498"
         style="stroke-width:0.999998" />
    </clipPath>
    <clipPath
       clipPathUnits="userSpaceOnUse"
       id="clipPath36500">
      <path
         d="M -13.243101,-13.5673 H 21.906903 V 9.6626979 h -35.150004 z"
         id="path36502"
         style="stroke-width:0.999998" />
    </clipPath>
    <clipPath
       clipPathUnits="userSpaceOnUse"
       id="clipPath36504">
      <path
         d="M -15.005101,-12.1156 H 20.144903 V 11.114398 H -15.005101 Z"
         id="path36506"
         style="stroke-width:0.999998" />
    </clipPath>
    <clipPath
       clipPathUnits="userSpaceOnUse"
       id="clipPath36508">
      <path
         d="M -6.9262006,-20.4935 H 28.223803 V 2.7364979 H -6.9262006 Z"
         id="path36510"
         style="stroke-width:0.999998" />
    </clipPath>
    <clipPath
       clipPathUnits="userSpaceOnUse"
       id="clipPath36512">
      <path
         d="M -25.402401,-22.3067 H 9.7476028 V 0.92329789 H -25.402401 Z"
         id="path36514"
         style="stroke-width:0.999998" />
    </clipPath>
  </defs>
  <g
     id="g12096"
     transform="matrix(1.3333333,0,0,-1.3333333,33.869867,1.0976538)"
     clip-path="url(#clipPath36512)">
    <path
       d="m 0,0 c 0.022,0.174 0.046,0.348 0.069,0.524 -5.353,0.399 -10.66,0.399 -16.01,0 C -15.919,0.348 -15.897,0.174 -15.872,0 -10.568,0.394 -5.304,0.394 0,0"
       style="fill:#202020;fill-opacity:1;fill-rule:nonzero;stroke:none"
       id="path12098" />
  </g>
  <g
     id="g12100"
     transform="matrix(1.3333333,0,0,-1.3333333,9.2349339,3.5152538)"
     clip-path="url(#clipPath36508)">
    <path
       d="m 0,0 c 7.06,0.708 14.019,0.708 21.079,0 0.016,0.175 0.036,0.349 0.052,0.525 -7.095,0.71 -14.087,0.71 -21.184,0 C -0.034,0.349 -0.018,0.175 0,0"
       style="fill:#202020;fill-opacity:1;fill-rule:nonzero;stroke:none"
       id="path12102" />
  </g>
  <g
     id="g12152"
     transform="matrix(1.3333333,0,0,-1.3333333,6.8772006,21.447653)"
     clip-path="url(#clipPath36456)">
    <path
       d="m 0,0 c 0.078,0.337 0.144,0.676 0.201,1.017 0.059,0.354 0.108,0.71 0.147,1.067 0.038,0.36 0.068,0.719 0.091,1.08 0.021,0.354 0.034,0.707 0.039,1.061 V 4.228 H -2.419 V 4.912 H 0.478 V 4.916 C 0.473,5.271 0.46,5.624 0.439,5.977 0.416,6.337 0.386,6.698 0.348,7.057 0.309,7.414 0.26,7.77 0.201,8.124 0.144,8.465 0.078,8.806 0,9.141 c -0.074,0.314 -0.156,0.625 -0.254,0.933 -0.06,0.188 -0.123,0.374 -0.195,0.558 -0.095,0.247 -0.203,0.488 -0.327,0.72 -0.104,0.199 -0.223,0.391 -0.359,0.57 -0.113,0.148 -0.24,0.289 -0.384,0.409 -0.063,0.053 -0.129,0.102 -0.201,0.145 -0.065,0.039 -0.133,0.074 -0.204,0.103 -0.132,0.051 -0.274,0.081 -0.414,0.081 -0.148,0 -0.293,-0.032 -0.429,-0.088 C -2.84,12.544 -2.911,12.506 -2.978,12.463 -3.05,12.418 -3.119,12.366 -3.184,12.31 -3.333,12.182 -3.463,12.033 -3.579,11.874 -3.718,11.685 -3.838,11.481 -3.945,11.271 -4.071,11.022 -4.179,10.767 -4.277,10.506 -4.348,10.311 -4.414,10.115 -4.473,9.917 -4.569,9.593 -4.652,9.264 -4.724,8.935 -4.801,8.583 -4.865,8.228 -4.92,7.871 -4.976,7.503 -5.019,7.134 -5.055,6.763 -5.091,6.394 -5.117,6.023 -5.133,5.653 -5.151,5.292 -5.158,4.931 -5.158,4.57 c 0,-0.36 0.007,-0.721 0.025,-1.08 0.016,-0.372 0.042,-0.744 0.078,-1.112 0.036,-0.37 0.079,-0.738 0.135,-1.108 0.055,-0.356 0.119,-0.71 0.196,-1.063 0.072,-0.331 0.155,-0.659 0.251,-0.983 0.059,-0.197 0.125,-0.394 0.196,-0.588 0.098,-0.261 0.206,-0.517 0.332,-0.766 0.107,-0.209 0.227,-0.413 0.366,-0.604 0.061,-0.082 0.125,-0.162 0.194,-0.237 0.063,-0.071 0.129,-0.137 0.201,-0.197 0.065,-0.057 0.134,-0.108 0.206,-0.155 0.067,-0.041 0.138,-0.078 0.211,-0.108 0.136,-0.056 0.281,-0.087 0.429,-0.087 0.14,0 0.282,0.028 0.414,0.082 0.071,0.029 0.139,0.063 0.204,0.103 0.072,0.041 0.138,0.091 0.201,0.142 0.144,0.12 0.271,0.261 0.384,0.411 0.136,0.178 0.255,0.37 0.359,0.569 0.124,0.232 0.232,0.475 0.327,0.719 0.072,0.185 0.135,0.371 0.195,0.558 C -0.156,-0.626 -0.074,-0.313 0,0"
       style="fill:#202020;fill-opacity:1;fill-rule:nonzero;stroke:none"
       id="path12154" />
  </g>
  <g
     id="g12156"
     transform="matrix(1.3333333,0,0,-1.3333333,46.7284,12.42992)"
     clip-path="url(#clipPath36452)">
    <path
       d="M 0,0 C -0.035,0.37 -0.08,0.74 -0.135,1.106 -0.191,1.463 -0.254,1.819 -0.331,2.171 -0.404,2.5 -0.485,2.83 -0.582,3.153 -0.642,3.351 -0.708,3.548 -0.779,3.742 -0.875,4.004 -0.984,4.259 -1.111,4.507 -1.219,4.717 -1.337,4.921 -1.477,5.112 -1.594,5.27 -1.724,5.42 -1.872,5.546 -1.936,5.602 -2.005,5.655 -2.078,5.701 -2.145,5.742 -2.215,5.778 -2.29,5.81 -2.423,5.865 -2.571,5.897 -2.716,5.897 h -28.227 c 0.063,-0.059 0.124,-0.121 0.18,-0.185 0.099,-0.109 0.188,-0.223 0.271,-0.343 h 27.776 c 0.061,0 0.12,-0.011 0.176,-0.028 0.044,-0.015 0.084,-0.032 0.123,-0.054 0.089,-0.047 0.169,-0.109 0.244,-0.176 0.089,-0.084 0.169,-0.176 0.244,-0.273 0.094,-0.125 0.177,-0.259 0.255,-0.395 0.091,-0.162 0.172,-0.329 0.247,-0.499 0.074,-0.172 0.141,-0.347 0.204,-0.523 0.051,-0.148 0.099,-0.298 0.145,-0.45 0.071,-0.241 0.134,-0.486 0.191,-0.732 0.061,-0.262 0.113,-0.525 0.161,-0.789 0.048,-0.275 0.09,-0.549 0.126,-0.825 0.073,-0.562 0.121,-1.126 0.149,-1.691 0.027,-0.552 0.034,-1.105 0.021,-1.656 C -0.437,-3.001 -0.448,-3.278 -0.465,-3.557 -0.481,-3.84 -0.503,-4.123 -0.531,-4.403 -0.56,-4.685 -0.592,-4.967 -0.632,-5.246 -0.671,-5.518 -0.716,-5.79 -0.768,-6.06 -0.817,-6.318 -0.872,-6.577 -0.937,-6.832 -0.99,-7.054 -1.052,-7.275 -1.121,-7.494 -1.166,-7.64 -1.215,-7.784 -1.267,-7.928 -1.335,-8.116 -1.412,-8.302 -1.496,-8.483 -1.57,-8.64 -1.651,-8.797 -1.742,-8.947 -1.806,-9.051 -1.876,-9.154 -1.951,-9.251 -2.024,-9.346 -2.106,-9.435 -2.195,-9.515 -2.264,-9.577 -2.337,-9.63 -2.417,-9.672 -2.456,-9.694 -2.496,-9.712 -2.54,-9.727 -2.596,-9.744 -2.655,-9.755 -2.716,-9.755 h -27.21 c -0.034,-0.056 -0.07,-0.112 -0.106,-0.168 -0.082,-0.124 -0.17,-0.244 -0.265,-0.36 h 27.581 c 0.145,0 0.293,0.034 0.426,0.088 0.075,0.03 0.145,0.067 0.212,0.109 0.073,0.045 0.14,0.098 0.206,0.153 0.072,0.062 0.138,0.127 0.201,0.196 0.068,0.076 0.133,0.158 0.194,0.239 0.14,0.19 0.258,0.395 0.366,0.606 0.127,0.247 0.236,0.504 0.332,0.764 0.071,0.194 0.137,0.391 0.197,0.59 0.097,0.322 0.178,0.651 0.251,0.981 0.077,0.352 0.14,0.707 0.196,1.065 0.055,0.365 0.1,0.737 0.135,1.107 0.035,0.368 0.06,0.739 0.079,1.111 0.016,0.36 0.023,0.721 0.023,1.081 0,0.36 -0.007,0.721 -0.023,1.082 C 0.06,-0.74 0.035,-0.368 0,0"
       style="fill:#202020;fill-opacity:1;fill-rule:nonzero;stroke:none"
       id="path12158" />
  </g>
  <g
     id="g12160"
     transform="matrix(1.3333333,0,0,-1.3333333,3.7594674,15.70472)"
     clip-path="url(#clipPath36448)">
    <path
       d="m 0,0 h 2.817 c 0.003,0.175 0.003,0.351 0,0.527 H 0 Z"
       style="fill:#202020;fill-opacity:1;fill-rule:nonzero;stroke:none"
       id="path12162" />
  </g>
  <g
     id="g12168"
     transform="matrix(1.3333333,0,0,-1.3333333,9.2349339,27.192187)"
     clip-path="url(#clipPath36440)">
    <path
       d="m 0,0 c -0.018,-0.173 -0.034,-0.35 -0.053,-0.525 7.097,-0.71 14.089,-0.71 21.184,0 C 21.115,-0.35 21.095,-0.173 21.079,0 14.019,-0.708 7.06,-0.708 0,0"
       style="fill:#202020;fill-opacity:1;fill-rule:nonzero;stroke:none"
       id="path12170" />
  </g>
  <g
     id="g12172"
     transform="matrix(1.3333333,0,0,-1.3333333,12.706001,29.609253)"
     clip-path="url(#clipPath36436)">
    <path
       d="m 0,0 c -0.024,-0.174 -0.045,-0.349 -0.069,-0.524 5.352,-0.399 10.659,-0.399 16.01,0 C 15.918,-0.349 15.895,-0.174 15.873,0 10.568,-0.396 5.304,-0.396 0,0"
       style="fill:#202020;fill-opacity:1;fill-rule:nonzero;stroke:none"
       id="path12174" />
  </g>
</svg>
