<?xml version="1.0" encoding="UTF-8" standalone="no"?>
<!-- Created with Inkscape (http://www.inkscape.org/) -->

<svg
   version="1.1"
   id="svg2"
   width="55.558136"
   height="49.953308"
   viewBox="0 0 55.558136 49.953308"
   xmlns="http://www.w3.org/2000/svg"
   xmlns:svg="http://www.w3.org/2000/svg">
  <defs
     id="defs6">
    <clipPath
       clipPathUnits="userSpaceOnUse"
       id="clipPath22439">
      <path
         d="m -82.183904,208.8044 1.169003,-289.498998 H 335.1991 l -1.17,289.498998 z"
         id="path22441"
         style="stroke-width:0.999998" />
    </clipPath>
    <clipPath
       clipPathUnits="userSpaceOnUse"
       id="clipPath22443">
      <path
         d="m -61.279604,204.8335 1.169003,-289.498998 H 356.1034 l -1.17,289.498998 z"
         id="path22445"
         style="stroke-width:0.999998" />
    </clipPath>
    <clipPath
       clipPathUnits="userSpaceOnUse"
       id="clipPath22567">
      <path
         d="m -63.119404,198.3685 1.169003,-289.498998 H 354.2636 l -1.17,289.498998 z"
         id="path22569"
         style="stroke-width:0.999998" />
    </clipPath>
    <clipPath
       clipPathUnits="userSpaceOnUse"
       id="clipPath22571">
      <path
         d="m -84.946104,198.3685 1.169003,-289.498998 H 332.4369 l -1.17,289.498998 z"
         id="path22573"
         style="stroke-width:0.999998" />
    </clipPath>
    <clipPath
       clipPathUnits="userSpaceOnUse"
       id="clipPath22631">
      <path
         d="m -91.394804,193.1535 1.169003,-289.498998 H 325.9882 l -1.17,289.498998 z"
         id="path22633"
         style="stroke-width:0.999998" />
    </clipPath>
    <clipPath
       clipPathUnits="userSpaceOnUse"
       id="clipPath22659">
      <path
         d="m -69.568204,193.1535 1.169003,-289.498998 H 347.8148 l -1.17,289.498998 z"
         id="path22661"
         style="stroke-width:0.999998" />
    </clipPath>
  </defs>
  <g
     id="g8"
     transform="matrix(1.3333333,0,0,-1.3333333,-407.78024,490.33531)">
    <g
       id="g70"
       transform="translate(323.6932,367.7515)"
       clip-path="url(#clipPath22659)">
      <path
         d="M 0,0 C 1.096,0 1.984,-0.889 1.984,-1.985 V -35.48 c 0,-1.096 -0.888,-1.985 -1.984,-1.985 h -15.874 c -1.096,0 -1.984,0.889 -1.984,1.985 v 33.495 c 0,1.096 0.888,1.985 1.984,1.985 z"
         style="fill:#211a19;fill-opacity:1;fill-rule:nonzero;stroke:none"
         id="path72" />
    </g>
    <g
       id="g98"
       transform="translate(345.5198,367.7515)"
       clip-path="url(#clipPath22631)">
      <path
         d="m 0,0 h -15.874 c -1.096,0 -1.984,-0.889 -1.984,-1.985 V -35.48 c 0,-1.096 0.888,-1.985 1.984,-1.985 H 0 c 1.096,0 1.984,0.889 1.984,1.985 V -1.985 C 1.984,-0.889 1.096,0 0,0"
         style="fill:#92949a;fill-opacity:1;fill-rule:nonzero;stroke:none"
         id="path100" />
    </g>
    <g
       id="g158"
       transform="translate(339.0711,362.5365)"
       clip-path="url(#clipPath22571)">
      <path
         d="m 0,0 c 0,-0.822 -0.666,-1.488 -1.488,-1.488 -0.822,0 -1.488,0.666 -1.488,1.488 0,0.822 0.666,1.488 1.488,1.488 C -0.666,1.488 0,0.822 0,0"
         style="fill:#ffffff;fill-opacity:1;fill-rule:nonzero;stroke:none"
         id="path160" />
    </g>
    <g
       id="g162"
       transform="translate(317.2444,362.5365)"
       clip-path="url(#clipPath22567)">
      <path
         d="m 0,0 c 0,-0.822 -0.666,-1.488 -1.488,-1.488 -0.822,0 -1.488,0.666 -1.488,1.488 0,0.822 0.666,1.488 1.488,1.488 C -0.666,1.488 0,0.822 0,0"
         style="fill:#ffffff;fill-opacity:1;fill-rule:nonzero;stroke:none"
         id="path164" />
    </g>
    <g
       id="g284"
       transform="translate(315.4046,356.0715)"
       clip-path="url(#clipPath22443)">
      <path
         d="M 0,0 H -0.68 V 0.467 C -0.298,0.66 0.056,0.868 0.34,1.111 H 0.778 V -3.971 H 0 Z"
         style="fill:#ffffff;fill-opacity:1;fill-rule:nonzero;stroke:none"
         id="path286" />
    </g>
    <g
       id="g288"
       transform="translate(336.3089,352.1006)"
       clip-path="url(#clipPath22439)">
      <path
         d="m 0,0 v 0.673 c 1.069,1.564 1.651,2.423 1.651,3.159 0,0.396 -0.152,0.57 -0.388,0.57 -0.277,0 -0.417,-0.215 -0.417,-0.521 V 3.541 H 0.027 v 0.236 c 0,0.736 0.472,1.305 1.277,1.305 0.709,0 1.167,-0.527 1.167,-1.111 C 2.471,3.18 2.222,2.597 0.875,0.709 H 2.396 V 0 Z"
         style="fill:#ffffff;fill-opacity:1;fill-rule:nonzero;stroke:none"
         id="path290" />
    </g>
  </g>
</svg>
