<?xml version="1.0" encoding="UTF-8" standalone="no"?>
<!-- Created with Inkscape (http://www.inkscape.org/) -->

<svg
   version="1.1"
   id="svg2"
   width="9.7298584"
   height="7.6643677"
   viewBox="0 0 9.7298584 7.6643676"
   xmlns="http://www.w3.org/2000/svg"
   xmlns:svg="http://www.w3.org/2000/svg">
  <defs
     id="defs6">
    <clipPath
       clipPathUnits="userSpaceOnUse"
       id="clipPath37173">
      <path
         d="m -30.967202,-17.310603 h 92.242 v 59.865001 h -92.242 z"
         id="path37175"
         style="stroke-width:0.999998" />
    </clipPath>
    <clipPath
       clipPathUnits="userSpaceOnUse"
       id="clipPath37509">
      <path
         d="m -27.437402,-16.332603 h 92.242 v 59.865001 h -92.242 z"
         id="path37511"
         style="stroke-width:0.999998" />
    </clipPath>
    <clipPath
       clipPathUnits="userSpaceOnUse"
       id="clipPath37513">
      <path
         d="m -34.292002,-15.780303 h 92.242 v 59.865001 h -92.242 z"
         id="path37515"
         style="stroke-width:0.999998" />
    </clipPath>
  </defs>
  <g
     id="g13806"
     transform="matrix(1.3333333,0,0,-1.3333333,4.7069319,5.0346565)"
     clip-path="url(#clipPath37173)">
    <path
       d="m 0,0 c 0.231,-0.206 0.935,-0.83 2.499,-0.83 v 0.358 c -1.427,0 -2.055,0.557 -2.261,0.74 C 0.055,0.431 -0.323,1.367 -0.533,1.981 -0.608,2.198 -0.682,2.416 -0.757,2.634 -0.798,2.407 -0.839,2.182 -0.879,1.955 -1,1.28 -1.484,-0.472 -2.261,-0.472 V -0.83 c 0.888,0 1.379,1.31 1.598,2.122 C -0.476,0.806 -0.207,0.184 0,0"
       style="fill:#231f20;fill-opacity:1;fill-rule:nonzero;stroke:none"
       id="path13808" />
  </g>
</svg>
